<mxfile host="app.diagrams.net" modified="2020-10-04T15:02:03.515Z" agent="5.0 (Windows NT 10.0; Win64; x64) AppleWebKit/537.36 (KHTML, like Gecko) Chrome/85.0.4183.83 YaBrowser/20.9.0.933 Yowser/2.5 Safari/537.36" etag="cGUcEyFMuZSx2URCmE2a" version="13.7.7" type="github">
  <diagram id="oUh6lzY3reAEoEkiKf_M" name="Страница 1">
    <mxGraphModel dx="1865" dy="552" grid="1" gridSize="10" guides="1" tooltips="1" connect="1" arrows="1" fold="1" page="1" pageScale="1" pageWidth="827" pageHeight="1169" math="0" shadow="0">
      <root>
        <mxCell id="0" />
        <mxCell id="1" parent="0" />
        <mxCell id="JS1e10L5yjZOFirnvrKF-6" value="Маркетолог" style="shape=umlActor;verticalLabelPosition=bottom;verticalAlign=top;html=1;outlineConnect=0;" vertex="1" parent="1">
          <mxGeometry x="-70" y="570" width="30" height="60" as="geometry" />
        </mxCell>
        <mxCell id="JS1e10L5yjZOFirnvrKF-7" style="edgeStyle=none;rounded=0;orthogonalLoop=1;jettySize=auto;html=1;dashed=1;dashPattern=1 1;" edge="1" parent="1" source="JS1e10L5yjZOFirnvrKF-10" target="JS1e10L5yjZOFirnvrKF-11">
          <mxGeometry relative="1" as="geometry" />
        </mxCell>
        <mxCell id="JS1e10L5yjZOFirnvrKF-8" style="edgeStyle=none;rounded=0;orthogonalLoop=1;jettySize=auto;html=1;dashed=1;dashPattern=1 1;" edge="1" parent="1" source="JS1e10L5yjZOFirnvrKF-10" target="JS1e10L5yjZOFirnvrKF-12">
          <mxGeometry relative="1" as="geometry" />
        </mxCell>
        <mxCell id="JS1e10L5yjZOFirnvrKF-9" style="edgeStyle=none;rounded=0;orthogonalLoop=1;jettySize=auto;html=1;dashed=1;dashPattern=1 1;" edge="1" parent="1" source="JS1e10L5yjZOFirnvrKF-10" target="JS1e10L5yjZOFirnvrKF-25">
          <mxGeometry relative="1" as="geometry" />
        </mxCell>
        <mxCell id="JS1e10L5yjZOFirnvrKF-10" value="Анализировать ЦА" style="ellipse;whiteSpace=wrap;html=1;" vertex="1" parent="1">
          <mxGeometry x="10" y="530" width="115" height="70" as="geometry" />
        </mxCell>
        <mxCell id="JS1e10L5yjZOFirnvrKF-11" value="Предоставить список всех клиентов" style="ellipse;whiteSpace=wrap;html=1;" vertex="1" parent="1">
          <mxGeometry x="160" y="440" width="135" height="90" as="geometry" />
        </mxCell>
        <mxCell id="JS1e10L5yjZOFirnvrKF-12" value="Разбить постояльцев на возрастные группы" style="ellipse;whiteSpace=wrap;html=1;" vertex="1" parent="1">
          <mxGeometry x="270" y="550" width="135" height="90" as="geometry" />
        </mxCell>
        <mxCell id="JS1e10L5yjZOFirnvrKF-13" style="edgeStyle=none;rounded=0;orthogonalLoop=1;jettySize=auto;html=1;dashed=1;dashPattern=1 1;" edge="1" parent="1" source="JS1e10L5yjZOFirnvrKF-16" target="JS1e10L5yjZOFirnvrKF-17">
          <mxGeometry relative="1" as="geometry" />
        </mxCell>
        <mxCell id="JS1e10L5yjZOFirnvrKF-14" style="edgeStyle=none;rounded=0;orthogonalLoop=1;jettySize=auto;html=1;dashed=1;dashPattern=1 1;" edge="1" parent="1" source="JS1e10L5yjZOFirnvrKF-16" target="JS1e10L5yjZOFirnvrKF-18">
          <mxGeometry relative="1" as="geometry" />
        </mxCell>
        <mxCell id="JS1e10L5yjZOFirnvrKF-15" style="edgeStyle=none;rounded=0;orthogonalLoop=1;jettySize=auto;html=1;dashed=1;dashPattern=1 1;" edge="1" parent="1" source="JS1e10L5yjZOFirnvrKF-16" target="JS1e10L5yjZOFirnvrKF-19">
          <mxGeometry relative="1" as="geometry" />
        </mxCell>
        <mxCell id="JS1e10L5yjZOFirnvrKF-16" value="Анализ эффективности скидочной политики" style="ellipse;whiteSpace=wrap;html=1;" vertex="1" parent="1">
          <mxGeometry x="-27.5" y="720" width="145" height="80" as="geometry" />
        </mxCell>
        <mxCell id="JS1e10L5yjZOFirnvrKF-17" value="Получить список скидочных предложений" style="ellipse;whiteSpace=wrap;html=1;" vertex="1" parent="1">
          <mxGeometry x="122.5" y="660" width="135" height="90" as="geometry" />
        </mxCell>
        <mxCell id="JS1e10L5yjZOFirnvrKF-18" value="Получить список проведенных транзакций" style="ellipse;whiteSpace=wrap;html=1;" vertex="1" parent="1">
          <mxGeometry x="192.5" y="770" width="135" height="90" as="geometry" />
        </mxCell>
        <mxCell id="JS1e10L5yjZOFirnvrKF-19" value="Вычислить рентабельность&amp;nbsp;" style="ellipse;whiteSpace=wrap;html=1;" vertex="1" parent="1">
          <mxGeometry x="25" y="830" width="135" height="90" as="geometry" />
        </mxCell>
        <mxCell id="JS1e10L5yjZOFirnvrKF-20" value="Изменение данных о скидках" style="ellipse;whiteSpace=wrap;html=1;" vertex="1" parent="1">
          <mxGeometry x="-259" y="490" width="131" height="60" as="geometry" />
        </mxCell>
        <mxCell id="JS1e10L5yjZOFirnvrKF-21" style="edgeStyle=none;rounded=0;orthogonalLoop=1;jettySize=auto;html=1;dashed=1;dashPattern=1 1;" edge="1" parent="1" source="JS1e10L5yjZOFirnvrKF-22" target="JS1e10L5yjZOFirnvrKF-20">
          <mxGeometry relative="1" as="geometry">
            <mxPoint x="-231.22158905430615" y="429.4681862696657" as="sourcePoint" />
          </mxGeometry>
        </mxCell>
        <mxCell id="JS1e10L5yjZOFirnvrKF-22" value="Добавление актуальных&lt;br&gt;&amp;nbsp;данных" style="ellipse;whiteSpace=wrap;html=1;" vertex="1" parent="1">
          <mxGeometry x="-320" y="390" width="131" height="60" as="geometry" />
        </mxCell>
        <mxCell id="JS1e10L5yjZOFirnvrKF-23" style="edgeStyle=none;rounded=0;orthogonalLoop=1;jettySize=auto;html=1;dashed=1;dashPattern=1 1;" edge="1" parent="1" source="JS1e10L5yjZOFirnvrKF-24" target="JS1e10L5yjZOFirnvrKF-20">
          <mxGeometry relative="1" as="geometry" />
        </mxCell>
        <mxCell id="JS1e10L5yjZOFirnvrKF-24" value="Удаление неактуальных &lt;br&gt;данных" style="ellipse;whiteSpace=wrap;html=1;" vertex="1" parent="1">
          <mxGeometry x="-149" y="400" width="131" height="60" as="geometry" />
        </mxCell>
        <mxCell id="JS1e10L5yjZOFirnvrKF-25" value="Создать отчет" style="ellipse;whiteSpace=wrap;html=1;" vertex="1" parent="1">
          <mxGeometry x="280" y="660" width="115" height="70" as="geometry" />
        </mxCell>
        <mxCell id="JS1e10L5yjZOFirnvrKF-29" value="&amp;lt;inc&amp;gt;" style="text;html=1;strokeColor=none;fillColor=none;align=center;verticalAlign=middle;whiteSpace=wrap;rounded=0;" vertex="1" parent="1">
          <mxGeometry x="117.5" y="500" width="40" height="20" as="geometry" />
        </mxCell>
        <mxCell id="JS1e10L5yjZOFirnvrKF-30" value="&amp;lt;inc&amp;gt;" style="text;html=1;strokeColor=none;fillColor=none;align=center;verticalAlign=middle;whiteSpace=wrap;rounded=0;" vertex="1" parent="1">
          <mxGeometry x="192.5" y="555" width="40" height="20" as="geometry" />
        </mxCell>
        <mxCell id="JS1e10L5yjZOFirnvrKF-31" value="&amp;lt;inc&amp;gt;" style="text;html=1;strokeColor=none;fillColor=none;align=center;verticalAlign=middle;whiteSpace=wrap;rounded=0;" vertex="1" parent="1">
          <mxGeometry x="152.5" y="620" width="40" height="20" as="geometry" />
        </mxCell>
        <mxCell id="JS1e10L5yjZOFirnvrKF-32" value="&amp;lt;inc&amp;gt;" style="text;html=1;strokeColor=none;fillColor=none;align=center;verticalAlign=middle;whiteSpace=wrap;rounded=0;" vertex="1" parent="1">
          <mxGeometry x="82.5" y="710" width="40" height="20" as="geometry" />
        </mxCell>
        <mxCell id="JS1e10L5yjZOFirnvrKF-33" value="&amp;lt;inc&amp;gt;" style="text;html=1;strokeColor=none;fillColor=none;align=center;verticalAlign=middle;whiteSpace=wrap;rounded=0;" vertex="1" parent="1">
          <mxGeometry x="30" y="805" width="40" height="20" as="geometry" />
        </mxCell>
        <mxCell id="JS1e10L5yjZOFirnvrKF-34" value="&amp;lt;inc&amp;gt;" style="text;html=1;strokeColor=none;fillColor=none;align=center;verticalAlign=middle;whiteSpace=wrap;rounded=0;" vertex="1" parent="1">
          <mxGeometry x="120" y="785" width="40" height="20" as="geometry" />
        </mxCell>
        <mxCell id="JS1e10L5yjZOFirnvrKF-35" value="&amp;lt;extd&amp;gt;" style="text;html=1;strokeColor=none;fillColor=none;align=center;verticalAlign=middle;whiteSpace=wrap;rounded=0;" vertex="1" parent="1">
          <mxGeometry x="-130" y="465" width="30" height="25" as="geometry" />
        </mxCell>
        <mxCell id="JS1e10L5yjZOFirnvrKF-36" value="&amp;lt;extd&amp;gt;" style="text;html=1;strokeColor=none;fillColor=none;align=center;verticalAlign=middle;whiteSpace=wrap;rounded=0;" vertex="1" parent="1">
          <mxGeometry x="-269.5" y="460" width="30" height="25" as="geometry" />
        </mxCell>
        <mxCell id="JS1e10L5yjZOFirnvrKF-37" value="" style="endArrow=none;html=1;shadow=0;strokeColor=#000000;entryX=1;entryY=1;entryDx=0;entryDy=0;" edge="1" parent="1" source="JS1e10L5yjZOFirnvrKF-6" target="JS1e10L5yjZOFirnvrKF-20">
          <mxGeometry width="50" height="50" relative="1" as="geometry">
            <mxPoint x="-190" y="650" as="sourcePoint" />
            <mxPoint x="-140" y="600" as="targetPoint" />
          </mxGeometry>
        </mxCell>
        <mxCell id="JS1e10L5yjZOFirnvrKF-38" value="" style="endArrow=none;html=1;shadow=0;strokeColor=#000000;entryX=-0.003;entryY=0.39;entryDx=0;entryDy=0;entryPerimeter=0;" edge="1" parent="1" source="JS1e10L5yjZOFirnvrKF-6" target="JS1e10L5yjZOFirnvrKF-10">
          <mxGeometry width="50" height="50" relative="1" as="geometry">
            <mxPoint x="-30" y="630" as="sourcePoint" />
            <mxPoint x="20" y="580" as="targetPoint" />
          </mxGeometry>
        </mxCell>
        <mxCell id="JS1e10L5yjZOFirnvrKF-39" value="" style="endArrow=none;html=1;shadow=0;strokeColor=#000000;" edge="1" parent="1" source="JS1e10L5yjZOFirnvrKF-16" target="JS1e10L5yjZOFirnvrKF-6">
          <mxGeometry width="50" height="50" relative="1" as="geometry">
            <mxPoint x="-140" y="730" as="sourcePoint" />
            <mxPoint x="-90" y="680" as="targetPoint" />
          </mxGeometry>
        </mxCell>
      </root>
    </mxGraphModel>
  </diagram>
</mxfile>
